HIERARCHY
ROOT Hips
{
  OFFSET 0 89.5177 0.535
  CHANNELS 6 Xposition Yposition Zposition Zrotation Xrotation Yrotation
  JOINT Spine
  {
    OFFSET 12.0259 -0.162855 1.69034e-005
    CHANNELS 3 Zrotation Xrotation Yrotation
    JOINT Spine1
    {
      OFFSET 15.3169 -0.0121922 0
      CHANNELS 3 Zrotation Xrotation Yrotation
      JOINT Spine2
      {
        OFFSET 15.3176 -0.0121908 0
        CHANNELS 3 Zrotation Xrotation Yrotation
        JOINT Neck
        {
          OFFSET 19.9142 1.56338 0
          CHANNELS 3 Zrotation Xrotation Yrotation
          JOINT Head
          {
            OFFSET 6.92651 0 0
            CHANNELS 3 Zrotation Xrotation Yrotation
            End Site
            {
              OFFSET 20.7666 0 0
            }
          }
          JOINT LeftShoulder
          {
            OFFSET -6.20654 0.708824 7.28219
            CHANNELS 3 Zrotation Xrotation Yrotation
            JOINT LeftArm
            {
              OFFSET 14.108 0 -1.52588e-005
              CHANNELS 3 Zrotation Xrotation Yrotation
              JOINT LeftForeArm
              {
                OFFSET 28.5802 0 0
                CHANNELS 3 Zrotation Xrotation Yrotation
                JOINT LeftHand
                {
                  OFFSET 27.092 0 0
                  CHANNELS 3 Zrotation Xrotation Yrotation
                  End Site
                  {
                    OFFSET 9.55928 -0.186424 0.145352
                  }
                }
              }
            }
          }
          JOINT RightShoulder
          {
            OFFSET -6.20654 0.708866 -7.28218
            CHANNELS 3 Zrotation Xrotation Yrotation
            JOINT RightArm
            {
              OFFSET 14.108 0 1.52588e-005
              CHANNELS 3 Zrotation Xrotation Yrotation
              JOINT RightForeArm
              {
                OFFSET 28.5802 0 0
                CHANNELS 3 Zrotation Xrotation Yrotation
                JOINT RightHand
                {
                  OFFSET 27.092 0 0
                  CHANNELS 3 Zrotation Xrotation Yrotation
                  End Site
                  {
                    OFFSET 9.55929 -0.186417 -0.145354
                  }
                }
              }
            }
          }
        }
      }
    }
  }
  JOINT LeftUpLeg
  {
    OFFSET 0.005 -0.535 8.837
    CHANNELS 3 Zrotation Xrotation Yrotation
    JOINT LeftLeg
    {
      OFFSET 39.9035 0 0
      CHANNELS 3 Zrotation Xrotation Yrotation
      JOINT LeftFoot
      {
        OFFSET 39.6689 0 0
        CHANNELS 3 Zrotation Xrotation Yrotation
        JOINT LeftToe
        {
          OFFSET 10.1624 13.6296 0
          CHANNELS 3 Zrotation Xrotation Yrotation
          End Site
          {
            OFFSET 8.38147 0 0
          }
        }
      }
    }
  }
  JOINT RightUpLeg
  {
    OFFSET 0.005 -0.535 -8.837
    CHANNELS 3 Zrotation Xrotation Yrotation
    JOINT RightLeg
    {
      OFFSET 39.9035 0 0
      CHANNELS 3 Zrotation Xrotation Yrotation
      JOINT RightFoot
      {
        OFFSET 39.6689 0 0
        CHANNELS 3 Zrotation Xrotation Yrotation
        JOINT RightToe
        {
          OFFSET 10.1624 13.6296 0
          CHANNELS 3 Zrotation Xrotation Yrotation
          End Site
          {
            OFFSET 8.38147 0 0
          }
        }
      }
    }
  }
}
MOTION
Frames:	17
Frame Time:	0.0333333
515.051 89.4325 -186.599 154.46 -81.2785 61.9183 -1.81564 -0.297854 -0.67246 -3.63471 -0.573771 -1.35385 -3.63471 -0.57377 -1.35386 -8.30748e-012 -9.0191e-006 -5.27751e-005 10 -1.69084e-006 2.312e-005 179.728 -12.3218 -91.2741 -24.4037 -58.1132 -0.685451 -8.29325e-006 -3.18055e-015 -3.18055e-015 -40.5726 -15.429 -22.9371 179.682 7.86816 92.3252 57.7864 59.944 -64.4995 -0.813882 -4.77083e-015 -0 -39.4659 24.0608 29.6961 -10.0837 5.65781 178.591 -21.4895 -1.59028e-015 -0 22.657 1.92923 -3.91708 90 -1.98785e-015 -3.18055e-015 -11.6217 -3.611 175.763 -18.1407 -7.45443e-017 1.4971e-015 11.1739 -3.59142 7.15542 90 -9.93923e-017 7.95139e-016 
514.994 89.4232 -186.488 154.702 -81.2953 62.148 -1.81948 -0.298861 -0.669655 -3.64239 -0.575828 -1.3483 -3.64239 -0.575828 -1.3483 -8.30748e-012 -9.0191e-006 -5.27751e-005 10.0947 0.053497 -0.0675376 179.719 -12.3351 -91.3144 -24.3781 -58.1977 -0.668869 -8.29325e-006 6.36111e-015 -0 -40.4906 -15.256 -22.7247 179.672 7.84868 92.4006 57.9425 59.9656 -64.6345 -0.857662 -3.18055e-015 5.96354e-016 -39.4373 24.0458 29.7695 -10.1931 5.88604 178.635 -21.5387 1.59028e-015 -0 22.5385 2.16396 -4.39325 90 1.59028e-015 -0 -11.7115 -3.5747 175.753 -18.162 2.98177e-016 -3.54085e-016 11.0962 -3.55977 7.09062 90 2.48481e-016 3.97569e-016 
514.916 89.4074 -186.383 155.084 -81.3497 62.5834 -1.8185 -0.298461 -0.684875 -3.64031 -0.564222 -1.37854 -3.64031 -0.564222 -1.37855 -8.30728e-012 -9.0191e-006 -5.27751e-005 10.1604 0.121043 -0.102311 179.71 -12.3566 -91.3554 -24.5058 -58.2366 -0.777528 -8.29325e-006 3.18055e-015 -0 -40.54 -15.2745 -22.7488 179.674 7.86267 92.3831 57.9783 60.1081 -64.6757 -0.839843 1.59028e-015 1.68967e-015 -39.4343 23.8074 29.5746 -10.258 5.99621 178.541 -21.6146 -3.18055e-015 -1.19271e-015 22.5451 2.16097 -4.38693 90 1.09332e-015 1.59028e-015 -11.8215 -3.51322 175.651 -18.2859 1.73937e-016 1.03741e-015 11.1726 -3.56114 7.09367 90 -2.23633e-016 -3.97569e-016 
514.844 89.3865 -186.272 155.411 -81.4102 62.9748 -1.81445 -0.29743 -0.70021 -3.63218 -0.556825 -1.40908 -3.63218 -0.556824 -1.40909 -8.30708e-012 -9.0191e-006 -5.27751e-005 10.2026 0.166837 -0.182289 179.696 -12.3736 -91.4201 -24.5567 -58.3881 -0.837116 -8.29325e-006 6.36111e-015 1.59028e-015 -40.578 -15.1518 -22.7064 179.662 7.83394 92.4816 58.1496 60.0726 -64.8357 -0.971572 1.59028e-015 2.98177e-016 -39.4431 23.9066 29.6281 -10.3084 6.06415 178.432 -21.6737 0 -0 22.5695 2.15796 -4.38085 90 -7.95139e-016 -3.18055e-015 -11.9549 -3.41572 175.54 -18.4538 3.23025e-016 -6.1499e-016 11.2259 -3.56775 7.10052 90 -2.23633e-016 -0 
514.781 89.3737 -186.164 155.451 -81.494 63.0744 -1.79753 -0.296021 -0.70995 -3.59838 -0.554456 -1.42844 -3.59838 -0.554456 -1.42845 -8.30708e-012 -9.0191e-006 -5.27751e-005 10.1991 0.184103 -0.190804 179.698 -12.3558 -91.4091 -24.6035 -58.5145 -0.943806 -8.29325e-006 9.54166e-015 -0 -40.5118 -14.9685 -22.525 179.649 7.82272 92.5772 58.7776 60.1847 -65.3984 -1.03338 0 -2.98177e-016 -39.3885 23.6462 29.3961 -10.3353 6.09287 178.328 -21.7546 1.59028e-015 1.59028e-015 22.5519 2.13208 -4.32781 90 -7.95139e-016 -0 -12.065 -3.37134 175.436 -18.6474 7.45443e-016 -8.63471e-016 11.269 -3.57222 7.11491 90 -7.45443e-017 7.95139e-016 
514.719 89.3672 -186.059 155.414 -81.5606 63.07 -1.78264 -0.294486 -0.727127 -3.56872 -0.554919 -1.46273 -3.56872 -0.554918 -1.46274 -8.30828e-012 -9.0191e-006 -5.27751e-005 10.255 0.312599 -0.231771 179.696 -12.3481 -91.4232 -24.788 -58.5863 -1.09558 -8.29325e-006 -3.18055e-015 1.59028e-015 -40.6328 -15.0242 -22.6508 179.666 7.83662 92.4491 58.0724 60.1657 -64.7553 -1.09568 -6.36111e-015 2.98177e-016 -39.3918 23.7435 29.4124 -10.3571 6.11802 178.25 -21.8008 1.59028e-015 1.19271e-015 22.5261 2.10673 -4.27591 90 1.59028e-015 -1.59028e-015 -12.1242 -3.29829 175.369 -18.746 -3.72721e-016 3.72721e-016 11.2413 -3.55697 7.08328 90 1.73937e-016 3.97569e-016 
514.662 89.3565 -185.956 155.127 -81.6005 62.8277 -1.77841 -0.293078 -0.737679 -3.56072 -0.573368 -1.4841 -3.56072 -0.573368 -1.48411 -8.30748e-012 -9.0191e-006 -5.27751e-005 10.5755 0.404376 -0.251807 179.703 -12.3239 -91.3929 -24.7999 -58.595 -1.09333 -8.29325e-006 9.54166e-015 3.18055e-015 -40.581 -14.9788 -22.6011 179.659 7.83237 92.4977 58.4976 60.2477 -65.1784 -1.015 -4.77083e-015 -7.95139e-016 -39.5643 23.7698 29.5717 -10.4012 6.14021 178.178 -21.8722 -3.18055e-015 -7.95139e-016 22.5493 2.137 -4.33748 90 -3.77691e-015 3.18055e-015 -12.1819 -3.31876 175.269 -18.8477 4.96962e-017 1.65861e-015 11.3051 -3.58181 7.13333 90 1.73937e-016 1.19271e-015 
514.602 89.3448 -185.862 154.945 -81.6431 62.6926 -1.78607 -0.292046 -0.759598 -3.57609 -0.568575 -1.5279 -3.57609 -0.568575 -1.52791 -8.30768e-012 -9.0191e-006 -5.27751e-005 11.2713 0.645392 -0.198834 179.71 -12.3048 -91.3602 -25.0029 -58.5482 -1.13701 -8.29325e-006 -3.18055e-015 -0 -40.5928 -15.0425 -22.7037 179.675 7.84032 92.3829 58.3695 60.2925 -65.0593 -0.929563 6.36111e-015 7.95139e-016 -39.5425 23.789 29.5783 -10.4197 6.20382 178.101 -21.9072 -1.59028e-015 3.97569e-016 22.5315 2.15098 -4.36563 90 7.95139e-016 -0 -12.2426 -3.34465 175.171 -18.9424 8.69683e-017 3.47873e-016 11.3412 -3.60142 7.17251 90 -7.45443e-017 -1.59028e-015 
514.55 89.3377 -185.787 154.658 -81.7365 62.4519 -1.78711 -0.291646 -0.779119 -3.57807 -0.558364 -1.56679 -3.57807 -0.558364 -1.5668 -8.30669e-012 -9.0191e-006 -5.27751e-005 12.285 0.89678 -0.185462 179.729 -12.297 -91.2702 -25.2507 -58.4146 -1.17954 -8.29325e-006 3.18055e-015 1.59028e-015 -40.4576 -15.1639 -22.6434 179.685 7.80899 92.3159 57.9688 60.1086 -64.726 -0.907552 0 6.95746e-016 -39.5917 23.9971 29.8034 -10.3752 6.15352 178.007 -21.9375 -1.59028e-015 -3.97569e-016 22.5024 2.1196 -4.30158 90 -6.95746e-016 -0 -12.2514 -3.38889 175.068 -19.0418 -3.75827e-016 -7.57867e-016 11.3962 -3.65643 7.28296 90 7.45443e-017 3.97569e-016 
514.508 89.3312 -185.699 154.18 -81.7932 61.9719 -1.7968 -0.293914 -0.789801 -3.59754 -0.56243 -1.58827 -3.59754 -0.56243 -1.58827 -8.30708e-012 -9.0191e-006 -5.27751e-005 13.5115 1.21394 -0.223499 179.752 -12.2151 -91.1738 -25.4239 -58.5346 -1.16844 -8.29325e-006 0 -1.59028e-015 -40.4263 -15.2786 -22.7125 179.707 7.77744 92.1617 57.5746 60.0333 -64.3956 -0.871591 3.18055e-015 -0 -39.4086 24.1106 29.7673 -10.3778 6.2611 178.014 -21.996 1.59028e-015 -7.95139e-016 22.5528 2.19 -4.44494 90 4.17448e-015 -1.59028e-015 -12.2704 -3.36829 175.049 -19.1317 7.45443e-017 7.73397e-016 11.3451 -3.61941 7.20734 90 -1.73937e-016 3.97569e-016 
514.468 89.3237 -185.614 153.684 -81.8896 61.4784 -1.79952 -0.302853 -0.798703 -3.60315 -0.579985 -1.60636 -3.60315 -0.579985 -1.60637 -8.30669e-012 -9.0191e-006 -5.27751e-005 14.8725 1.71799 -0.39227 179.776 -12.2017 -91.0587 -25.6028 -58.4364 -1.17672 -8.29325e-006 -9.54166e-015 -0 -40.3333 -15.274 -22.6251 179.723 7.75911 92.0545 57.3485 59.987 -64.3352 -0.79669 3.18055e-015 9.44227e-016 -39.3966 24.3306 29.9642 -10.3728 6.30784 178.01 -22.1095 -1.59028e-015 -1.19271e-015 22.6035 2.23833 -4.54331 90 -4.96962e-016 -0 -12.258 -3.31593 175.03 -19.2301 7.45443e-017 -8.69683e-017 11.2875 -3.58402 7.13493 90 -9.93923e-017 3.97569e-016 
514.43 89.3151 -185.528 153.208 -81.9994 61.0061 -1.79471 -0.305348 -0.808993 -3.59361 -0.584718 -1.62699 -3.59361 -0.584718 -1.627 -8.30828e-012 -9.0191e-006 -5.27751e-005 16.2713 2.2052 -0.649459 179.794 -12.1624 -90.978 -25.658 -58.3409 -1.09779 -8.29325e-006 -9.54166e-015 -0 -40.412 -15.332 -22.6248 179.742 7.78204 91.9074 56.9471 59.9441 -64.1145 -0.7829 0 -9.93923e-017 -39.4134 24.4794 30.0874 -10.3683 6.37628 178.003 -22.2471 0 -3.18055e-015 22.657 2.27814 -4.62429 90 1.98785e-015 -0 -12.2356 -3.29655 175 -19.3298 7.45443e-017 5.59082e-017 11.2717 -3.58295 7.13188 90 -1.73937e-016 -0 
514.388 89.306 -185.435 152.99 -82.0552 60.7917 -1.78185 -0.303352 -0.810746 -3.56789 -0.580856 -1.63037 -3.56789 -0.580855 -1.63038 -8.30828e-012 -9.0191e-006 -5.27751e-005 17.3064 2.70328 -1.00839 179.809 -12.1199 -90.9111 -25.6297 -58.457 -0.996917 -8.29325e-006 -3.18055e-015 -1.59028e-015 -40.32 -15.2994 -22.5318 179.751 7.7741 91.8373 56.9478 59.9426 -64.1584 -0.81518 0 -8.44835e-016 -39.3867 24.4585 30.0271 -10.393 6.48424 178 -22.3115 0 3.97569e-016 22.7134 2.34219 -4.7549 90 4.77083e-015 -3.18055e-015 -12.2767 -3.30857 174.958 -19.411 -5.71506e-016 -7.57867e-016 11.2768 -3.59488 7.15533 90 2.48481e-017 7.95139e-016 
514.336 89.2891 -185.335 152.909 -82.1125 60.7199 -1.7577 -0.293553 -0.814108 -3.51945 -0.561506 -1.63667 -3.51945 -0.561505 -1.63668 -8.30708e-012 -9.0191e-006 -5.27751e-005 17.3637 2.92499 -1.29302 179.819 -12.0565 -90.8661 -25.5827 -58.2928 -0.958089 -8.29325e-006 3.18055e-015 -1.59028e-015 -40.3267 -15.3588 -22.5828 179.755 7.77523 91.8113 56.9669 59.9771 -64.175 -0.69344 -1.59028e-015 -3.97569e-016 -39.5302 24.4536 30.0606 -10.4204 6.62944 177.994 -22.3807 -3.18055e-015 3.97569e-016 22.7944 2.42018 -4.91416 90 -5.96354e-016 1.59028e-015 -12.3389 -3.35161 174.889 -19.5021 3.10601e-017 1.07934e-016 11.3379 -3.65465 7.27545 90 -2.98177e-016 3.97569e-016 
514.286 89.2778 -185.214 152.854 -82.1115 60.7118 -1.7353 -0.294611 -0.823645 -3.47472 -0.563653 -1.65567 -3.47472 -0.563653 -1.65568 -8.30708e-012 -9.0191e-006 -5.27751e-005 16.195 2.90182 -1.46299 179.821 -12.0811 -90.8571 -25.4719 -58.2104 -0.873875 -8.29325e-006 -6.36111e-015 1.59028e-015 -40.2547 -15.425 -22.6418 179.76 7.74157 91.7788 56.9735 59.9628 -64.0795 -0.74235 -1.59028e-015 1.04362e-015 -39.3695 24.3653 29.9657 -10.4479 6.71497 177.923 -22.3176 -1.59028e-015 1.59028e-015 22.8112 2.46398 -5.00377 90 -5.96354e-016 -0 -12.4854 -3.38027 174.785 -19.6286 -8.44835e-016 1.66405e-015 11.3674 -3.69758 7.36108 90 -7.45443e-017 7.95139e-016 
514.226 89.2662 -185.082 152.935 -82.0625 60.8666 -1.7136 -0.28991 -0.840757 -3.43132 -0.554057 -1.68965 -3.43132 -0.554057 -1.68966 -8.30708e-012 -9.0191e-006 -5.27751e-005 14.4504 2.69581 -1.4241 179.831 -12.0932 -90.8062 -25.5165 -58.1184 -1.02993 -8.29325e-006 0 -1.59028e-015 -40.277 -15.47 -22.6874 179.764 7.73099 91.7554 56.8471 59.9347 -63.8061 -0.75109 -3.18055e-015 2.98177e-016 -39.3978 24.4214 30.1304 -10.5501 6.77337 177.816 -22.2871 1.59028e-015 -2.78299e-015 22.806 2.50045 -5.07818 90 1.19271e-015 -0 -12.6919 -3.3805 174.646 -19.7769 -2.54693e-016 -1.23309e-015 11.4463 -3.72393 7.41414 90 4.96962e-017 7.95139e-016 
514.167 89.2578 -184.951 153.244 -81.9901 61.2845 -1.71024 -0.278944 -0.861855 -3.42454 -0.531549 -1.73149 -3.42454 -0.531548 -1.7315 -8.30688e-012 -9.0191e-006 -5.27751e-005 12.8927 2.34921 -1.31287 179.847 -12.0504 -90.7337 -25.4826 -58.0369 -1.19416 -8.29325e-006 -6.36111e-015 -0 -40.4387 -15.4663 -22.7493 179.764 7.68574 91.7672 56.8391 59.9426 -63.5495 -0.69642 1.59028e-015 -1.2921e-015 -39.4896 24.3627 30.1329 -10.5861 6.87361 177.669 -22.0859 -6.36111e-015 -2.78299e-015 22.7821 2.54843 -5.17645 90 -4.47266e-015 3.18055e-015 -12.9715 -3.35851 174.486 -19.9862 1.86361e-016 4.50372e-016 11.5374 -3.72641 7.41911 90 1.73937e-016 3.97569e-016 
